# xmcd
#
# Track frame offsets: 
#        150
#        20020
#        39112
#        61570
#        79120
#        101980
#        127595
#        147300
#        169792
#        189747
#
# Disc length: 2823 seconds
#
# Revision: 9
# Processed by: cddbd v1.5.2PL0 Copyright (c) Steve Scherf et al.
# Submitted via: ExactAudioCopyFreeDBPlugin 1.0
#
DISCID=7a0b050a
DTITLE=Bon Jovi - 7800 Degrees Fahrenheit
DYEAR=1985
DGENRE=Heavy Metal
TTITLE0=In And Out Of Love
TTITLE1=The Price Of Love
TTITLE2=Only Lonely
TTITLE3=King Of The Mountain
TTITLE4=Silent Night
TTITLE5=Tokyo Road
TTITLE6=Hardest Part Is The Night
TTITLE7=Always Run To You
TTITLE8=(I Don't Wanna Fall) To The Fire
TTITLE9=Secret Dreams
EXTD=YEAR: 1985
EXTT0=
EXTT1=
EXTT2=
EXTT3=
EXTT4=
EXTT5=
EXTT6=
EXTT7=
EXTT8=
EXTT9=
PLAYORDER=
